<svg xmlns="http://www.w3.org/2000/svg" width="53" height="74" fill="none" viewBox="0 0 53 74">
  <path fill="#000" d="M.764 52.072h8.928V61H.764v-8.928ZM23.21 61c-2.944 0-5.312-.832-7.104-2.496-1.728-1.728-2.592-3.872-2.592-6.432V21.928c0-2.624.864-4.768 2.592-6.432C17.898 13.832 20.266 13 23.21 13h.384c1.728 0 3.264.416 4.608 1.248V13h9.12v39.072h1.344l.96 8.928H28.202v-3.744L25.802 61H23.21Zm-.096-39.072c-.32 0-.48.16-.48.48v29.184c0 .32.16.48.48.48h5.088V21.928h-5.088Z"/>
  <path fill="#0085FF" d="M43.154 9.16V.232h8.16l.96 8.928h-9.12Zm-6.432 64.608V64.84h6.432V21.928h-1.44l.96-8.928h9.6v51.84c0 2.688-.831 4.832-2.495 6.432-1.665 1.664-3.84 2.496-6.529 2.496h-6.528Z"/>
</svg>
